# xmcd
#
# Track frame offsets:
#	150
#	15350
#	28450
#	45932
#	60964
#	78132
#	94722
#	112047
#	126140
#	140380
#	158877
#	171850
#	182717
#	202972
#	217035
#	235480
#	253797
#	269865
#	287275
#	304520
#	317347
#	330610
#	343362
#
# Disc length: 4776 seconds
#
# Revision: 3
# Processed by: cddbd v1.5.1PL0 Copyright (c) Steve Scherf et al.
# Submitted via: MusicWizard 7.0.2
#
DISCID=4512a617
DTITLE=Various Artist - Heartaches And Highways - Vol.1
DYEAR=1999
DGENRE=Country
TTITLE0=Heather Miles - Love Me A Little Bit Longer
TTITLE1=Alison Kraus - Could You Lie
TTITLE2=Kieran Kane - I'll Go On Loving You
TTITLE3=Amazing Rythm Aces - Third Rate Romance
TTITLE4=Jesse Winchester - Freewheeler
TTITLE5=Lynn Miles - Middle Of The Night
TTITLE6=Tom Russell - Beyond The Blues
TTITLE7=Chris Wall - Empty Seat Beside Me
TTITLE8=Rosie Flores - Bring It On
TTITLE9=Bill Kirchen - Girlfriend
TTITLE10=Greg Trooper - Lightning Bug
TTITLE11=Lucinda Williams - I Just Wanted To See You So Bad
TTITLE12=Buddy Miller - 100 Million Little Bombs
TTITLE13=Lucy Kaplansky - One Good Reason
TTITLE14=Kevin Welch - Shores Of Stone
TTITLE15=Dan Penn and Spooner Oldham - A Woman Left Lonely
TTITLE16=Julie Miller - All My Tears
TTITLE17=Mollie O'brien - Big Red Sun Blues
TTITLE18=Tanya Savory - When The River Rose
TTITLE19=Steve Young - The Year That Clayton Delany Died
TTITLE20=Steve Earle - Dixieland
TTITLE21=Terry Allen - Red Leg Boy
TTITLE22=Darrell Scott - My Father's House
EXTD=
EXTT0=
EXTT1=
EXTT2=
EXTT3=
EXTT4=
EXTT5=
EXTT6=
EXTT7=
EXTT8=
EXTT9=
EXTT10=
EXTT11=
EXTT12=
EXTT13=
EXTT14=
EXTT15=
EXTT16=
EXTT17=
EXTT18=
EXTT19=
EXTT20=
EXTT21=
EXTT22=
PLAYORDER=
